<?xml version="1.0" encoding="UTF-8"?>
<!DOCTYPE svg PUBLIC "-//W3C//DTD SVG 1.1//EN" "http://www.w3.org/Graphics/SVG/1.1/DTD/svg11.dtd">
<svg xmlns="http://www.w3.org/2000/svg" version="1.1" width="512px" height="512px" style="shape-rendering:geometricPrecision; text-rendering:geometricPrecision; image-rendering:optimizeQuality; fill-rule:evenodd; clip-rule:evenodd" xmlns:xlink="http://www.w3.org/1999/xlink">
<g><path style="opacity:0.976" fill="#ec1b23" d="M 124.5,5.5 C 197.834,5.33334 271.167,5.5 344.5,6C 382.667,43.5 420.833,81 459,118.5C 460.662,230.753 460.996,343.086 460,455.5C 455.245,481.588 440.078,498.088 414.5,505C 317.833,505.667 221.167,505.667 124.5,505C 100.039,499.206 84.8728,484.039 79,459.5C 77.748,450.88 77.248,442.213 77.5,433.5C 68.5,433.5 59.5,433.5 50.5,433.5C 50.5,383.5 50.5,333.5 50.5,283.5C 59.5,283.5 68.5,283.5 77.5,283.5C 77.0208,206.139 77.5208,128.806 79,51.5C 85.0541,26.9467 100.221,11.6133 124.5,5.5 Z M 132.5,23.5 C 194.833,23.5 257.167,23.5 319.5,23.5C 319.108,45.1964 319.608,66.8631 321,88.5C 327.585,114.751 344.085,130.918 370.5,137C 394.498,137.5 418.498,137.667 442.5,137.5C 442.667,242.834 442.5,348.167 442,453.5C 437.921,472.913 426.088,484.08 406.5,487C 315.167,487.667 223.833,487.667 132.5,487C 114.239,484.412 102.406,474.245 97,456.5C 95.6885,448.895 95.1885,441.228 95.5,433.5C 159.168,433.667 222.834,433.5 286.5,433C 316.029,428.479 335.529,411.979 345,383.5C 354.245,348.954 345.745,319.787 319.5,296C 310.467,289.654 300.467,285.654 289.5,284C 224.834,283.5 160.168,283.333 95.5,283.5C 95.3333,209.166 95.5,134.833 96,60.5C 99.723,39.6113 111.89,27.278 132.5,23.5 Z M 337.5,25.5 C 369.604,56.1026 401.27,87.2693 432.5,119C 412.472,119.882 392.472,119.548 372.5,118C 355.1,113.6 343.933,102.767 339,85.5C 337.589,65.5362 337.089,45.5362 337.5,25.5 Z M 92.5,321.5 C 97.8746,321.172 103.208,321.505 108.5,322.5C 115.667,341.5 122.833,360.5 130,379.5C 137.785,360.653 145.285,341.653 152.5,322.5C 157.456,321.506 162.456,321.173 167.5,321.5C 167.5,346.167 167.5,370.833 167.5,395.5C 163.833,395.5 160.167,395.5 156.5,395.5C 156.833,377.488 156.5,359.488 155.5,341.5C 148.382,358.681 141.549,376.014 135,393.5C 132.478,395.662 129.645,395.995 126.5,394.5C 119.592,376.358 112.425,358.358 105,340.5C 104.5,358.83 104.333,377.164 104.5,395.5C 100.5,395.5 96.5,395.5 92.5,395.5C 92.5,370.833 92.5,346.167 92.5,321.5 Z M 187.5,321.5 C 200.561,321.078 213.561,321.578 226.5,323C 241.79,330.457 245.623,341.957 238,357.5C 234.395,361.721 229.895,364.554 224.5,366C 216.173,366.5 207.84,366.666 199.5,366.5C 199.5,376.167 199.5,385.833 199.5,395.5C 195.5,395.5 191.5,395.5 187.5,395.5C 187.5,370.833 187.5,346.167 187.5,321.5 Z M 284.5,321.5 C 288.5,321.5 292.5,321.5 296.5,321.5C 296.5,337.5 296.5,353.5 296.5,369.5C 299.833,369.5 303.167,369.5 306.5,369.5C 306.5,372.5 306.5,375.5 306.5,378.5C 303.167,378.5 299.833,378.5 296.5,378.5C 296.5,384.167 296.5,389.833 296.5,395.5C 292.833,395.5 289.167,395.5 285.5,395.5C 285.5,389.833 285.5,384.167 285.5,378.5C 274.833,378.5 264.167,378.5 253.5,378.5C 253.336,375.813 253.503,373.146 254,370.5C 264.391,354.282 274.558,337.949 284.5,321.5 Z"/></g>
<g><path style="opacity:0.961" fill="#ec1b23" d="M 199.5,330.5 C 207.585,330.099 215.585,330.599 223.5,332C 228.282,334.726 230.616,338.893 230.5,344.5C 230.23,350.209 227.563,354.376 222.5,357C 214.841,357.5 207.174,357.666 199.5,357.5C 199.5,348.5 199.5,339.5 199.5,330.5 Z"/></g>
<g><path style="opacity:0.948" fill="#ed1b23" d="M 283.5,338.5 C 285.475,348.446 286.142,358.779 285.5,369.5C 278.492,369.666 271.492,369.5 264.5,369C 271.231,359.029 277.564,348.863 283.5,338.5 Z"/></g>
</svg>
